{"title":"Angel.Heart.1987.BDRip.AC3.X264-BARC0DE","uid":6109611,"size":1560360540,"categoryP":"video","categoryS":"movies","magnet":"?xt=urn:btih:3458668e86db0372c26ebe5ee43d53654dec36ac&amp;dn=Angel.Heart.1987.BDRip.AC3.X264-BARC0DE&amp;tr=udp%3A%2F%2Ftracker.openbittorrent.com%3A80&amp;tr=udp%3A%2F%2Fopen.demonii.com%3A1337&amp;tr=udp%3A%2F%2Ftracker.coppersurfer.tk%3A6969&amp;tr=udp%3A%2F%2Fexodus.desync.com%3A6969","seeders":0,"leechers":0,"uploader":"TvTeam","files":5,"time":1295298458,"description":". \n  &lt;a href=&quot;\nhttp://www.torrentday.com/&quot; rel=&quot;nofollow&quot; target=&quot;_NEW&quot;&gt;\nhttp://www.torrentday.com/&lt;/a&gt;        :     The Hottest Private Tracker On The Net!!!\n &lt;a href=&quot;\nhttp://www.torrentday.com&quot; rel=&quot;nofollow&quot; target=&quot;_NEW&quot;&gt;\nhttp://www.torrentday.com&lt;/a&gt;          :     Once &amp; For all ;)\n\n\n               www . TorrentDay . Com \n\n(((((((((((((= Enjoy No RAR releases =))))))))))))))))))))\n\n\n...................................NFO:....................................\n\n.*******************************************************************************\n                   Angel.Heart.1987.BDRip.AC3.X264-BARC0DE\n*******************************************************************************\n\n-------------------------------------------------------------------------------\n                              General Information\n-------------------------------------------------------------------------------\nType.................: Movie\nName.................: Angel Heart\nMovie Information....: http://www.imdb.com/title/tt0092563/\nGenre................: Horror | Mystery | Thriller\n-------------------------------------------------------------------------------\n                                    PLOT\n-------------------------------------------------------------------------------\nHarry Angel has a new case, to find a man called Johnny Favourite. Except things \naren't quite that simple, and Johnny doesn't want to be found. Let's just say \nthat, amongst the period detail and beautiful scenery, it all gets really, \nreally nasty.\n\n-------------------------------------------------------------------------------\n                                    CAST\n-------------------------------------------------------------------------------\nMickey Rourke \t... \tHarry Angel \nRobert De Niro \t... \tLouis Cyphre \nLisa Bonet \t... \tEpiphany Proudfoot \nCharlotte Rampling \t... \tMargaret Krusemark \nStocker Fontelieu \t... \tEthan Krusemark \nBrownie McGhee \t... \tToots Sweet \nMichael Higgins \t... \tDr. Albert Fowler \nElizabeth Whitcraft \t... \tConnie \nEliott Keener \t... \tDet. Sterne \nCharles Gordone \t... \tSpider Simpson \nDann Florek \t... \tHerman Winesap \nKathleen Wilhoite \t... \tNurse \nGeorge Buck \t... \tIzzy \nJudith Drake \t... \tIzzy's Wife \nGerald Orange \t... \tPastor John (as Gerald L. Orange)\n-------------------------------------------------------------------------------\n                                    MEDiA iNFO\n-------------------------------------------------------------------------------\n\nGeneral\nComplete name                    : Angel.Heart.1987.BDRip.AC3.X264-BARC0DE.mkv\nFormat                           : Matroska\nFile size                        : 1.44 GiB\nDuration                         : 1h 53mn\nOverall bit rate                 : 1 822 Kbps\n\n\nVideo\nID                               : 1\nFormat                           : AVC\nFormat/Info                      : Advanced Video Codec\nFormat profile                   : &lt;a class=&quot;__cf_email__&quot; href=&quot;/cdn-cgi/l/email-protection&quot; data-cfemail=&quot;2169484649616d120f11&quot;&gt;[email&amp;#160;protected]&lt;/a&gt;&lt;script cf-hash='f9e31' type=&quot;text/javascript&quot;&gt;\n/* &lt;![CDATA[ */!function(){try{var t=&quot;currentScript&quot;in document?document.currentScript:function(){for(var t=document.getElementsByTagName(&quot;script&quot;),e=t.length;e--;)if(t[e].getAttribute(&quot;cf-hash&quot;))return t[e]}();if(t&amp;&amp;t.previousSibling){var e,r,n,i,c=t.previousSibling,a=c.getAttribute(&quot;data-cfemail&quot;);if(a){for(e=&quot;&quot;,r=parseInt(a.substr(0,2),16),n=2;a.length-n;n+=2)i=parseInt(a.substr(n,2),16)^r,e+=String.fromCharCode(i);e=document.createTextNode(e),c.parentNode.replaceChild(e,c)}}}catch(u){}}();/* ]]&gt; */&lt;/script&gt;\nFormat settings, CABAC           : Yes\nFormat settings, ReFrames        : 4 frames\nMuxing mode                      : Container profile=&lt;a class=&quot;__cf_email__&quot; href=&quot;/cdn-cgi/l/email-protection&quot; data-cfemail=&quot;92c7fcf9fcfde5fcd2a1bca2&quot;&gt;[email&amp;#160;protected]&lt;/a&gt;&lt;script cf-hash='f9e31' type=&quot;text/javascript&quot;&gt;\n/* &lt;![CDATA[ */!function(){try{var t=&quot;currentScript&quot;in document?document.currentScript:function(){for(var t=document.getElementsByTagName(&quot;script&quot;),e=t.length;e--;)if(t[e].getAttribute(&quot;cf-hash&quot;))return t[e]}();if(t&amp;&amp;t.previousSibling){var e,r,n,i,c=t.previousSibling,a=c.getAttribute(&quot;data-cfemail&quot;);if(a){for(e=&quot;&quot;,r=parseInt(a.substr(0,2),16),n=2;a.length-n;n+=2)i=parseInt(a.substr(n,2),16)^r,e+=String.fromCharCode(i);e=document.createTextNode(e),c.parentNode.replaceChild(e,c)}}}catch(u){}}();/* ]]&gt; */&lt;/script&gt;\nCodec ID                         : V_MPEG4/ISO/AVC\nDuration                         : 1h 53mn\nBit rate                         : 1 397 Kbps\nWidth                            : 720 pixels\nHeight                           : 384 pixels\nDisplay aspect ratio             : 1.875\nFrame rate mode                  : Variable\nFrame rate                       : 23.976 fps\nColor space                      : YUV\nChroma subsampling               : 4:2:0\nBit depth                        : 8 bits\nScan type                        : Progressive\nBits/(Pixel*Frame)               : 0.211\nStream size                      : 1.06 GiB (73%)\nWriting library                  : x264 core 112\n\n\nAudio\nID                               : 2\nFormat                           : AC-3\nFormat/Info                      : Audio Coding 3\nMode extension                   : CM (complete main)\nCodec ID                         : A_AC3\nDuration                         : 1h 53mn\nBit rate mode                    : Constant\nBit rate                         : 448 Kbps\nChannel(s)                       : 6 channels\nChannel positions                : Front: L C R, Side: L R, LFE\nSampling rate                    : 48.0 KHz\nStream size                      : 363 MiB (25%)\nLanguage                         : English","torrent":{"xt":"urn:btih:3458668e86db0372c26ebe5ee43d53654dec36ac","amp;dn":"Angel.Heart.1987.BDRip.AC3.X264-BARC0DE","amp;tr":["udp%3A%2F%2Ftracker.openbittorrent.com%3A80","udp%3A%2F%2Fopen.demonii.com%3A1337","udp%3A%2F%2Ftracker.coppersurfer.tk%3A6969","udp%3A%2F%2Fexodus.desync.com%3A6969"],"infoHash":"3458668e86db0372c26ebe5ee43d53654dec36ac","infoHashBuffer":{"type":"Buffer","data":[52,88,102,142,134,219,3,114,194,110,190,94,228,61,83,101,77,236,54,172]},"announce":[],"urlList":[]}}